<?xml version="1.0" standalone="no"?>
<!DOCTYPE svg PUBLIC "-//W3C//DTD SVG 20010904//EN"
 "http://www.w3.org/TR/2001/REC-SVG-20010904/DTD/svg10.dtd">
<svg version="1.0" xmlns="http://www.w3.org/2000/svg"
 width="400.000000pt" height="400.000000pt" viewBox="0 0 400.000000 400.000000"
 preserveAspectRatio="xMidYMid meet">
<metadata>
Created by potrace 1.11, written by Peter Selinger 2001-2013
</metadata>
<g transform="translate(0.000000,400.000000) scale(0.100000,-0.100000)"
fill="#000000" stroke="none">
<path d="M2058 3995 c-2 -2 -15 -6 -30 -9 -14 -2 -35 -9 -46 -15 -11 -6 -22
-7 -26 -4 -3 3 -6 1 -6 -5 0 -7 -3 -11 -7 -10 -13 4 -83 -34 -83 -44 0 -5 -4
-6 -10 -3 -5 3 -10 -1 -10 -10 0 -9 -4 -14 -9 -11 -13 8 -92 -110 -98 -147 -3
-18 -8 -34 -11 -37 -6 -4 -8 -57 -2 -70 2 -5 9 -46 12 -67 1 -7 5 -13 10 -13
4 0 8 -9 8 -20 0 -11 5 -20 10 -20 6 0 9 -6 8 -12 -2 -7 3 -12 10 -10 6 1 11
-1 10 -5 -4 -13 25 -48 54 -67 15 -10 25 -22 22 -27 -3 -5 -2 -9 3 -8 4 1 22
-4 38 -11 17 -7 35 -14 40 -15 6 0 9 -6 8 -12 -1 -6 10 -9 27 -8 17 1 30 -2
30 -7 0 -5 5 -6 10 -3 6 3 10 1 10 -6 0 -8 4 -8 15 1 11 9 15 9 15 1 0 -7 4
-10 9 -6 5 3 12 1 16 -5 4 -7 12 -7 26 0 10 6 19 7 19 2 0 -4 9 -8 20 -8 11 0
20 3 20 6 0 3 15 6 33 7 17 1 41 4 52 6 73 16 84 20 78 30 -3 6 -1 7 6 3 6 -4
18 -2 26 4 8 7 15 9 15 4 0 -4 7 1 15 12 8 10 15 15 15 10 0 -5 8 0 18 11 9
11 27 25 40 32 12 7 20 16 17 22 -4 5 1 9 9 9 9 0 16 7 16 15 0 8 3 15 8 15 8
0 38 67 49 110 6 25 4 100 -4 112 -3 7 -8 23 -9 36 -2 13 -11 33 -20 43 -9 10
-14 19 -11 19 8 0 -15 29 -55 72 -16 16 -28 25 -28 21 0 -4 -4 -3 -8 3 -10 16
-98 63 -127 68 -13 3 -30 8 -36 12 -12 7 -205 15 -211 9z"/>
<path d="M1058 3425 c-4 -4 -26 -9 -50 -11 -45 -4 -53 -7 -128 -43 -44 -21
-110 -74 -110 -87 0 -4 -7 -12 -14 -18 -25 -18 -53 -107 -50 -156 4 -67 8 -82
26 -116 10 -17 14 -35 10 -39 -4 -5 -1 -5 6 -1 6 4 12 4 12 -1 0 -12 46 -63
56 -63 5 0 16 -9 24 -20 16 -22 35 -28 25 -7 -4 6 3 1 15 -13 12 -14 19 -20
16 -13 -4 7 7 5 26 -5 44 -22 49 -23 158 -27 61 -2 100 1 109 9 8 6 16 10 18
8 9 -8 62 11 67 23 3 8 11 12 18 10 8 -3 24 4 36 15 12 11 22 19 22 16 0 -2
14 8 30 22 17 15 30 32 30 39 0 7 4 13 9 13 15 0 49 101 46 137 -1 19 3 33 9
33 6 0 5 4 -3 9 -8 5 -11 16 -8 25 4 9 2 16 -3 16 -6 0 -10 6 -10 14 0 30 -99
168 -100 140 0 -5 -5 -1 -11 9 -6 9 -14 15 -20 12 -5 -4 -9 -2 -9 3 0 4 -16
16 -36 25 -19 10 -32 12 -29 6 4 -6 -2 -5 -14 3 -12 7 -21 16 -21 20 0 5 -5 8
-11 8 -5 0 -8 -4 -5 -8 3 -5 -1 -9 -9 -9 -8 0 -12 4 -9 8 2 4 -20 7 -51 6 -30
-1 -56 2 -58 6 -1 5 -5 5 -9 2z"/>
<path d="M3023 3383 c4 -7 -7 -11 -31 -12 -73 -2 -92 -5 -92 -14 0 -5 -7 -6
-16 -3 -8 3 -12 2 -9 -4 3 -6 -2 -10 -13 -10 -10 0 -28 -9 -40 -20 -12 -11
-27 -20 -33 -20 -7 0 -9 -3 -6 -6 4 -4 -2 -14 -12 -23 -10 -9 -21 -26 -25 -38
-4 -13 -11 -23 -16 -23 -5 0 -7 -7 -4 -15 4 -8 1 -15 -6 -15 -6 0 -8 -5 -4
-12 4 -6 8 -28 9 -47 2 -40 22 -84 54 -117 11 -12 17 -25 14 -28 -4 -3 2 -6
12 -6 10 0 26 -7 35 -15 18 -16 130 -56 130 -46 0 3 24 5 52 5 29 -1 58 1 63
5 6 3 21 7 35 9 14 2 33 10 42 19 10 9 18 13 18 10 0 -4 8 1 18 11 10 9 28 23
40 31 11 8 20 17 19 20 -1 3 7 18 17 33 10 15 15 32 11 38 -3 5 -2 10 3 10 5
0 7 12 4 26 -3 19 -1 25 6 20 8 -5 10 -2 6 8 -3 9 -9 14 -14 11 -4 -2 -5 7 -2
20 2 15 0 25 -7 25 -6 0 -10 3 -10 8 3 19 -3 32 -34 66 -19 20 -37 33 -40 29
-4 -3 -7 -2 -7 4 0 11 -59 40 -72 35 -5 -1 -8 2 -8 7 0 6 -8 10 -17 10 -24 0
-45 5 -62 15 -9 6 -12 5 -8 -1z"/>
<path d="M2017 3093 c-3 -2 -17 -6 -32 -9 -16 -3 -36 -9 -47 -15 -10 -5 -24
-7 -30 -3 -6 4 -8 3 -5 -2 3 -6 -14 -22 -39 -38 -24 -15 -41 -32 -38 -37 3 -5
-2 -12 -10 -15 -9 -3 -16 -15 -16 -26 0 -10 -3 -17 -7 -15 -5 3 -9 -21 -10
-53 -2 -33 1 -62 7 -65 5 -3 7 -14 5 -25 -2 -13 2 -20 11 -20 8 0 12 -4 9 -10
-3 -5 -2 -10 3 -10 5 0 14 -10 21 -23 12 -23 77 -64 93 -59 4 1 8 -3 8 -9 0
-6 7 -9 15 -5 8 3 15 1 15 -3 0 -5 8 -8 18 -6 9 1 22 0 27 -4 17 -10 69 -9 83
1 8 7 12 7 12 1 0 -6 11 -8 25 -5 14 2 23 8 20 12 -2 4 7 6 20 4 14 -1 25 2
25 8 0 6 7 8 15 4 8 -3 15 -1 15 5 0 5 11 14 25 19 14 5 25 14 25 20 0 6 5 8
10 5 6 -3 10 1 10 9 0 9 5 16 12 16 6 0 9 3 5 6 -3 4 1 13 9 21 8 8 12 19 9
24 -4 5 -1 9 6 9 6 0 9 8 6 20 -3 11 -1 20 5 20 5 0 6 5 2 11 -3 6 0 15 7 20
11 7 10 9 -5 9 -15 0 -16 3 -6 15 9 11 9 15 1 15 -7 0 -10 4 -6 9 3 5 1 12 -5
16 -6 4 -8 10 -5 15 3 5 -3 13 -12 19 -10 6 -14 11 -9 11 14 0 -67 70 -81 70
-7 0 -13 5 -13 10 0 6 -6 10 -14 10 -8 0 -27 5 -43 11 -28 12 -138 21 -146 12z"/>
<path d="M3592 2893 c3 -7 -17 -32 -79 -99 -12 -13 -27 -24 -33 -24 -5 0 -10
-4 -10 -9 0 -5 -9 -13 -21 -16 -11 -4 -18 -9 -15 -12 3 -3 -11 -14 -32 -23
-98 -46 -118 -54 -124 -52 -5 1 -8 -7 -8 -18 0 -12 5 -17 13 -14 7 2 26 -2 42
-10 16 -8 32 -13 37 -10 4 3 8 0 8 -6 0 -7 6 -10 14 -7 8 3 20 -1 26 -8 7 -8
16 -12 22 -9 5 3 20 -1 33 -10 13 -9 30 -16 38 -16 14 0 63 -47 56 -54 -15
-15 -109 -64 -103 -54 4 6 -8 1 -27 -12 -19 -14 -35 -24 -36 -22 -2 1 -4 2 -5
1 -2 0 -11 -2 -20 -5 -31 -7 -42 -11 -60 -18 -9 -4 -21 -5 -27 -2 -5 3 -11 1
-13 -4 -2 -6 -10 -12 -18 -13 -8 -2 -21 -6 -27 -10 -8 -5 -13 -3 -13 4 0 10
-3 10 -12 1 -7 -7 -25 -12 -41 -12 -15 0 -26 -4 -23 -8 2 -4 -10 -7 -27 -7
-18 1 -36 -1 -42 -4 -16 -9 -37 -13 -82 -14 -22 -1 -39 -6 -35 -11 3 -5 -2 -7
-11 -3 -10 3 -17 3 -17 -1 0 -5 -13 -7 -30 -6 -16 1 -30 -1 -30 -5 0 -3 -20
-6 -45 -6 -25 1 -45 -2 -45 -6 0 -9 -21 -6 -39 5 -10 6 -12 5 -7 -2 7 -11 -40
-17 -111 -14 -13 1 -23 -3 -23 -8 0 -6 -5 -10 -11 -10 -5 0 -8 4 -4 9 3 6 -4
8 -17 5 -38 -9 -80 -13 -150 -15 -43 -1 -68 -6 -68 -13 0 -6 -4 -6 -9 2 -4 8
-12 14 -16 14 -4 0 -12 -6 -16 -14 -5 -7 -9 -8 -9 -2 0 6 -7 11 -15 11 -8 0
-15 -3 -15 -6 0 -9 -473 -7 -487 2 -8 5 -13 3 -13 -4 0 -8 -5 -7 -17 2 -15 12
-16 12 -8 -1 8 -13 7 -13 -8 -1 -14 11 -17 11 -17 0 0 -9 -3 -10 -8 -4 -11 16
-46 19 -36 3 6 -10 5 -10 -7 -2 -12 10 -51 14 -161 17 -16 0 -28 5 -28 11 0 6
-4 5 -9 -2 -10 -17 -21 -17 -31 -2 -6 9 -13 9 -30 0 -13 -7 -20 -8 -16 -2 4 7
-6 11 -26 11 -77 -1 -108 3 -102 13 4 6 -2 5 -14 -1 -12 -6 -23 -7 -26 -2 -4
5 -14 8 -24 6 -9 -1 -23 2 -29 8 -9 6 -13 6 -13 -2 0 -7 -5 -9 -12 -4 -14 8
-29 12 -73 16 -17 2 -35 5 -40 9 -6 3 -18 4 -27 3 -10 -2 -18 0 -18 5 0 5 -11
7 -25 5 -14 -1 -25 1 -25 5 0 5 -9 6 -20 3 -11 -3 -20 -1 -20 4 0 6 -10 9 -22
8 -13 -1 -34 2 -48 8 -14 5 -36 11 -50 12 -14 1 -25 3 -25 4 0 2 -11 5 -25 7
-14 3 -27 9 -28 14 -2 6 -7 8 -12 5 -5 -3 -21 0 -37 7 -15 6 -30 12 -33 13 -3
1 -20 6 -37 10 -18 4 -33 11 -33 15 0 4 -12 11 -27 15 -15 3 -33 14 -41 23 -9
12 -12 13 -7 2 4 -8 -1 -6 -9 4 -12 14 -13 23 -5 33 6 7 16 13 21 13 5 0 16 7
25 15 8 8 19 13 24 10 5 -4 9 -1 9 5 0 6 4 8 10 5 5 -3 10 -1 10 5 0 6 4 9 9
5 5 -3 12 -1 16 5 3 5 14 10 24 10 27 0 42 22 26 37 -7 6 -16 9 -19 6 -3 -4
-6 -1 -6 5 0 7 -7 12 -15 12 -8 0 -15 3 -15 8 0 4 -14 16 -30 27 -16 11 -30
26 -30 34 0 8 -3 11 -6 8 -8 -7 -38 24 -62 66 -9 15 -20 27 -24 27 -4 0 -8 7
-8 15 0 8 -4 15 -9 15 -5 0 -11 9 -14 20 -5 18 -24 23 -37 10 -14 -14 -52 -30
-59 -25 -5 3 -12 -2 -15 -11 -3 -8 -10 -12 -16 -9 -5 3 -10 1 -10 -4 0 -6 -7
-11 -15 -11 -8 0 -15 -4 -15 -10 0 -5 -3 -9 -8 -8 -15 3 -42 -15 -35 -25 3 -5
1 -7 -5 -4 -10 7 -122 -98 -122 -115 0 -5 -4 -7 -9 -4 -5 4 -8 -5 -7 -18 2
-14 -1 -24 -7 -23 -13 3 -19 -28 -19 -103 0 -89 5 -119 19 -125 7 -2 10 -11 7
-20 -4 -9 2 -18 16 -23 12 -4 21 -11 21 -15 -2 -20 0 -30 5 -25 7 8 54 -40 54
-54 0 -6 3 -9 6 -5 3 3 41 -30 85 -74 43 -43 83 -79 89 -79 6 0 14 -8 17 -18
7 -18 41 -52 53 -52 4 0 13 -11 20 -25 7 -14 17 -25 21 -25 4 0 70 -63 148
-140 77 -77 143 -140 147 -140 11 0 33 -28 27 -34 -4 -3 1 -6 10 -6 10 0 17
-6 17 -12 0 -7 13 -22 29 -33 16 -10 27 -23 25 -27 -3 -4 2 -8 10 -8 9 0 16
-8 16 -17 0 -9 3 -14 6 -11 3 4 44 -32 90 -79 46 -46 84 -81 84 -76 1 4 7 -3
15 -17 7 -14 15 -23 17 -20 5 7 37 -24 32 -31 -2 -4 4 -13 13 -20 14 -12 16
-12 8 0 -5 10 -4 12 3 7 7 -4 12 -14 12 -22 0 -8 7 -14 16 -14 8 0 12 -4 9
-10 -3 -5 1 -10 9 -10 8 0 18 -9 21 -20 3 -11 12 -20 20 -20 8 0 17 -9 20 -20
4 -11 11 -18 16 -15 5 4 9 -2 9 -12 0 -15 2 -16 10 -3 8 13 10 12 10 -2 0 -10
5 -18 11 -18 6 0 8 -7 5 -16 -3 -8 -2 -12 4 -9 5 3 48 -33 95 -80 48 -47 91
-85 96 -85 5 0 9 -5 9 -10 0 -6 18 -28 40 -50 22 -22 40 -44 40 -49 0 -5 4
-11 8 -13 5 -2 21 -25 36 -51 14 -27 22 -46 16 -42 -6 3 -7 0 -4 -9 3 -9 9
-16 13 -16 7 0 14 -39 13 -77 0 -13 5 -23 12 -23 6 0 4 -5 -4 -10 -11 -7 -11
-10 -2 -10 9 0 10 -5 3 -17 -5 -10 -5 -26 -1 -39 6 -15 5 -25 -3 -28 -9 -5 -9
-7 1 -12 6 -3 12 -10 12 -15 0 -6 -5 -7 -11 -3 -7 4 -7 -1 1 -16 8 -15 8 -20
1 -16 -14 9 -14 0 0 -26 8 -15 8 -19 0 -14 -6 4 -11 2 -11 -3 0 -6 5 -11 10
-11 7 0 7 -6 0 -20 -8 -14 -8 -20 0 -20 7 0 8 -6 1 -17 -5 -10 -5 -26 -1 -39
6 -15 5 -25 -3 -28 -9 -5 -9 -7 1 -12 6 -3 12 -10 12 -15 0 -6 -5 -7 -11 -3
-7 4 -7 -1 1 -16 8 -15 8 -20 1 -16 -14 9 -14 0 0 -26 8 -15 8 -19 0 -14 -6 4
-11 2 -11 -3 0 -6 5 -11 12 -11 9 0 9 -3 1 -11 -15 -15 15 -89 35 -89 9 0 12
-3 9 -7 -4 -3 6 -13 21 -21 22 -13 72 -16 264 -18 131 -1 236 2 233 6 -3 4 4
6 15 3 11 -3 20 0 20 6 0 6 5 11 11 11 17 0 41 29 53 64 7 20 11 122 10 279 0
136 3 250 7 253 5 2 4 16 -1 29 -6 15 -6 27 0 30 6 4 10 15 10 26 0 10 5 19
11 19 5 0 8 4 4 9 -3 5 2 17 11 25 8 9 13 16 9 16 -3 0 2 14 12 30 9 17 21 30
25 30 4 0 8 7 8 16 0 8 5 12 10 9 6 -3 10 -2 10 3 0 4 10 19 22 32 13 14 21
29 20 35 -2 5 0 7 4 2 4 -4 22 9 40 28 17 19 37 35 43 35 6 0 11 5 11 10 0 6
9 19 20 30 11 11 20 18 20 15 0 -3 6 0 14 7 8 7 12 15 11 18 -2 3 10 15 26 25
16 11 32 28 35 37 3 10 8 17 12 15 4 -1 53 44 110 100 56 56 102 99 102 95 0
-4 9 7 20 23 11 17 20 27 20 23 0 -4 26 19 58 50 32 31 57 60 55 65 -3 4 0 6
5 5 5 -2 32 21 60 50 28 28 56 52 61 52 6 0 11 6 11 13 0 6 14 21 30 32 17 11
33 28 36 38 3 9 9 15 14 12 5 -3 12 4 15 16 4 11 9 18 12 15 3 -3 23 15 45 39
22 25 44 42 49 39 5 -3 9 0 9 5 0 14 43 57 53 54 4 -2 7 1 7 6 0 6 11 22 25
37 14 15 25 24 25 21 0 -3 18 13 40 35 22 23 40 45 40 50 0 4 6 7 13 5 6 -1
11 4 10 11 -2 6 2 12 8 12 13 0 125 112 121 123 -1 4 2 6 7 5 5 -2 25 14 46
35 20 20 47 45 61 53 13 9 24 22 24 29 0 7 7 16 16 19 9 3 14 13 11 20 -3 8 1
17 9 20 8 3 14 12 14 21 0 8 4 15 9 15 6 0 8 9 6 20 -2 11 0 20 4 20 15 0 4
134 -13 168 -9 18 -13 32 -10 32 4 0 -3 9 -16 20 -13 11 -19 20 -14 20 5 0 1
5 -8 11 -10 5 -18 17 -18 25 0 8 -4 12 -10 9 -5 -3 -10 -3 -10 2 0 4 -23 23
-50 42 -28 19 -50 38 -50 43 0 4 -3 8 -7 7 -16 -2 -53 14 -53 23 0 6 -7 8 -15
4 -9 -3 -15 0 -15 9 0 8 -3 14 -7 14 -21 -3 -43 2 -55 14 -15 14 -50 22 -46
10z"/>
</g>
</svg>
